<svg width="14" height="14" viewBox="0 0 14 14" fill="none" xmlns="http://www.w3.org/2000/svg">
<path d="M5.35359 8.06322C5.00972 7.7867 4.80042 7.41095 4.80042 6.98942C4.80042 6.14493 5.64482 5.46423 6.69256 5.46423C7.21104 5.46423 7.68827 5.63332 8.02615 5.90984" stroke="#86C9F6" stroke-width="1.07644" stroke-linecap="round" stroke-linejoin="round"/>
<path d="M8.54965 7.25989C8.41091 7.88133 7.80332 8.37174 7.03247 8.48447" stroke="#86C9F6" stroke-width="1.07644" stroke-linecap="round" stroke-linejoin="round"/>
<path d="M3.49617 9.5593C2.5471 8.95905 1.74336 8.08229 1.16089 6.98922C1.74934 5.89133 2.55847 5.00975 3.51351 4.40468C4.46257 3.79962 5.55755 3.47107 6.6926 3.47107C7.83422 3.47107 8.9286 3.80443 9.88364 4.41383" stroke="#86C9F6" stroke-width="1.07644" stroke-linecap="round" stroke-linejoin="round"/>
<path d="M11.1467 5.47339C11.5582 5.9137 11.92 6.42194 12.2244 6.98894C11.0481 9.18423 8.96933 10.5066 6.69266 10.5066C6.17657 10.5066 5.66765 10.4392 5.17847 10.3077" stroke="#86C9F6" stroke-width="1.07644" stroke-linecap="round" stroke-linejoin="round"/>
<path d="M11.4095 3.18945L1.97632 10.7884" stroke="#86C9F6" stroke-width="1.07644" stroke-linecap="round" stroke-linejoin="round"/>
</svg>
