<svg width="14" height="14" viewBox="0 0 14 14" fill="none" xmlns="http://www.w3.org/2000/svg">
<g clip-path="url(#clip0_198_820)">
<path d="M6.84076 3.80877C8.88137 3.80877 10.7012 4.9556 11.5896 6.77007C10.7012 8.58454 8.88675 9.73137 6.84076 9.73137C4.79477 9.73137 2.9803 8.58454 2.09191 6.77007C2.9803 4.9556 4.80016 3.80877 6.84076 3.80877ZM6.84076 2.73193C4.24882 2.73193 2.02122 4.28415 1.02774 6.5092C0.953617 6.67521 0.953617 6.86494 1.02774 7.03094C2.02122 9.25599 4.24882 10.8082 6.84076 10.8082C9.43271 10.8082 11.6603 9.25599 12.6538 7.03094C12.7279 6.86494 12.7279 6.67521 12.6538 6.5092C11.6603 4.28415 9.43271 2.73193 6.84076 2.73193ZM6.84076 5.42403C7.58378 5.42403 8.18681 6.02705 8.18681 6.77007C8.18681 7.51309 7.58378 8.11612 6.84076 8.11612C6.09775 8.11612 5.49472 7.51309 5.49472 6.77007C5.49472 6.02705 6.09775 5.42403 6.84076 5.42403ZM6.84076 4.34719C5.50549 4.34719 4.41788 5.43479 4.41788 6.77007C4.41788 8.10535 5.50549 9.19296 6.84076 9.19296C8.17604 9.19296 9.26365 8.10535 9.26365 6.77007C9.26365 5.43479 8.17604 4.34719 6.84076 4.34719Z" fill="#86C9F6"/>
</g>
<defs>
<clipPath id="clip0_198_820">
<rect width="12.922" height="12.922" fill="white" transform="translate(0.379761 0.309082)"/>
</clipPath>
</defs>
</svg>
